<?xml version="1.0" encoding="UTF-8"?>
<svg width="17px" height="17px" viewBox="0 0 17 17" version="1.1" xmlns="http://www.w3.org/2000/svg" xmlns:xlink="http://www.w3.org/1999/xlink">
    <!-- Generator: Sketch 59 (86127) - https://sketch.com -->
    <title>Group 3</title>
    <desc>Created with Sketch.</desc>
    <g id="Website" stroke="none" stroke-width="1" fill="none" fill-rule="evenodd">
        <g id="Admin-Dashboard-Stats-Copy" transform="translate(-1093.000000, -30.000000)" fill="#FFFFFF">
            <g id="Group-3" transform="translate(1093.000000, 30.000000)">
                <path d="M9.53936398,2.80924619 C9.32327639,3.12266941 9.06695914,3.40652245 8.77695044,3.65356474 C8.59700836,3.79463024 8.41394591,3.93050952 8.22984332,4.06846328 C8.19907068,4.08897019 8.16284103,4.09980897 8.12583056,4.09958067 C7.50180784,4.1148348 6.89615407,4.31327377 6.38465694,4.67006618 C5.85430642,5.03812059 5.41355507,5.52018623 5.09489871,6.08072124 L5.09489871,6.08072124 C5.09489871,6.08072124 5.06369488,6.13258355 5.01480888,6.22282399 C4.96592289,6.31306442 4.92535791,6.38670891 4.87855217,6.47072587 L4.88479293,6.47072587 C4.84630821,6.55059384 4.80470311,6.63979703 4.763098,6.73833543 C4.75673513,6.74653118 4.75245303,6.75613921 4.75061647,6.76634108 C4.7329343,6.80783094 4.71525213,6.85139529 4.69756996,6.89495963 C4.6919693,6.90603888 4.68710488,6.91747324 4.68300818,6.92918876 L4.66844639,6.97171587 C4.58109398,7.19806813 4.51120223,7.43074201 4.45938074,7.66770818 C4.45938074,7.66770818 4.45938074,7.67393166 4.45938074,7.6770434 C4.43545781,7.78076803 4.41361513,7.87723194 4.3938527,7.97784484 C4.29589896,8.50570992 4.2641048,9.04366819 4.29920109,9.57935323 C4.314803,9.85837251 4.36576926,10.1363545 4.40841449,10.4143366 C4.46164902,10.7303486 4.54631735,11.0402867 4.6611655,11.3395603 C4.82813528,11.8113857 5.06476949,12.2557249 5.36325163,12.6579005 C5.48910707,12.8238599 5.6295243,12.9784096 5.76578102,13.136071 C5.7844605,13.1567628 5.81069728,13.1690973 5.83858995,13.1703002 L9.66001878,13.1703002 C9.67093885,13.1692397 9.68173451,13.167156 9.69226273,13.1640767 L9.49255823,13.0147132 C8.98187921,12.6354892 8.5091925,12.2078801 8.08110507,11.7378629 C7.80859164,11.4360242 7.5548005,11.1155151 7.29268834,10.8043412 C7.28003142,10.7847993 7.26956728,10.763929 7.26148452,10.7421064 L7.29268834,10.7161753 C7.30575822,10.7404672 7.32071226,10.7637031 7.33741383,10.7856708 C7.76605521,11.2850522 8.23574277,11.7478875 8.7415861,12.1693574 C9.11003381,12.4736364 9.49852606,12.7529364 9.90444877,13.005378 C9.91589017,13.0126387 9.9283717,13.0157504 9.93981311,13.0219739 C10.0698291,13.0966557 10.0698291,13.0966557 10.1821628,12.9950055 C10.4856703,12.7141809 10.7454441,12.3897515 10.9528974,12.0324409 C11.1528485,11.6967854 11.3233691,11.3445426 11.4625599,10.9796358 C11.5395294,10.7804845 11.601937,10.576147 11.6705854,10.3749212 C11.683067,10.3375803 11.6705854,10.3209844 11.6331409,10.3043884 C11.181548,10.069208 10.7464698,9.80375528 10.3309011,9.50985773 C9.8842975,9.19781426 9.47800572,8.83201492 9.12123268,8.42074904 C8.88033869,8.14691771 8.68571991,7.83582971 8.54500198,7.49967427 C8.49403573,7.37209296 8.46491216,7.23725094 8.42330705,7.10552065 C8.41599372,7.08135165 8.40192206,7.05976291 8.38274208,7.04328586 C8.21918943,6.92700876 8.08261993,6.77702158 7.98229295,6.60349341 C7.96869524,6.57320716 7.95722617,6.54201451 7.94796874,6.51014123 L7.97189167,6.49976877 C8.00829614,6.54851935 8.04262035,6.60349341 8.07590443,6.64602051 C8.18781397,6.78278483 8.33030779,6.89149065 8.49195548,6.96341789 C8.58427885,6.98973116 8.67909182,7.00641651 8.77487019,7.01320572 C8.94029609,7.03880045 9.10418917,7.07342737 9.26581042,7.11693036 C9.50598376,7.19029484 9.74177985,7.27721806 9.97205706,7.3772792 C10.4160239,7.56875206 10.7988125,7.87800927 11.0787528,8.27138556 C11.0904937,8.28652415 11.102991,8.30106399 11.1161974,8.31494991 C11.1786617,8.24620537 11.2185806,8.16007479 11.2306115,8.06808528 C11.2675177,7.84292221 11.2696224,7.61345024 11.2368522,7.38765166 C11.2359321,7.3797259 11.2359321,7.37172075 11.2368522,7.36379499 C11.2586949,7.38039093 11.2774172,7.39283789 11.2950994,7.40735934 C11.4181576,7.53277168 11.5620946,7.63595075 11.7205116,7.71230977 C11.9503798,7.80566194 12.0658339,7.70712354 12.1157601,7.49241354 C12.1578875,7.24733623 12.1578875,6.99689695 12.1157601,6.75181964 C12.1061979,6.71204441 12.081605,6.67748682 12.0471116,6.65535572 C11.4230351,6.26638834 10.8374432,5.82555863 10.3829075,5.23951443 C10.2338305,5.04640661 10.0966287,4.84446473 9.97205706,4.6347998 C9.91454301,4.55897399 9.8326595,4.50514649 9.7401086,4.48232458 C9.65273789,4.44394647 9.56120666,4.41386632 9.47071555,4.38378618 C9.43119071,4.37030198 9.42182956,4.35474328 9.43535122,4.31014169 C9.51578775,4.07364951 9.59067694,3.83646585 9.66001878,3.59859068 C9.66001878,3.59859068 9.66001878,3.59859068 9.66001878,3.59340445 C9.7124476,3.44373123 9.73883085,3.28622106 9.73802835,3.12768083 C9.74118471,3.09594981 9.74118471,3.06398518 9.73802835,3.03225416 C9.73802835,3.0083975 9.73802835,2.98557808 9.73802835,2.96275866 C9.73802835,2.82687938 9.72970733,2.72315474 9.72762707,2.7065588 C9.72554682,2.68996286 9.72762707,2.64432402 9.72762707,2.61424388 L9.70162388,2.6080204 C9.64441686,2.67544141 9.59033023,2.74078793 9.53936398,2.80924619 Z" id="Path"></path>
                <path d="M8.27560893,0.000383029834 C12.8043245,0.0439473773 16.4426909,3.7915185 16.4010858,8.37407295 C16.3594807,12.9566274 12.6566264,16.6336658 8.12479043,16.5901014 C3.59295445,16.5465371 -0.0412514149,12.7979287 0.000353689429,8.21641151 C0.0419587937,3.6348943 3.74689333,-0.0431813176 8.27560893,0.000383029834 Z M8.13519171,15.5414454 C12.0876766,15.5787862 15.326634,12.3591735 15.3630385,8.36370049 C15.3994429,4.36822748 12.2156123,1.08637998 8.26520766,1.04903911 C4.314803,1.01169824 1.07480551,4.23027372 1.03840104,8.22678397 C1.00199658,12.2232942 4.18582718,15.5030672 8.13519171,15.5414454 L8.13519171,15.5414454 Z" id="Shape" fill-rule="nonzero"></path>
            </g>
        </g>
    </g>
</svg>